<svg id="transferBanner" data-name="Capa 1" xmlns="http://www.w3.org/2000/svg" viewBox="0 0 560 560"><path d="M280,188.66a8.21,8.21,0,1,0,5.8,2.41,8.2,8.2,0,0,0-5.8-2.41ZM557.6,456.78l-89.21-89.2a8.2,8.2,0,0,0-14,5.8v41H396.22A177.31,177.31,0,0,0,457.73,280c0-98-79.73-177.73-177.73-177.73a176.7,176.7,0,0,0-94,27H97.41a8.19,8.19,0,0,0-8.2,8.2v29.38l-69.4-69.4L89.21,28V57.39a8.19,8.19,0,0,0,8.2,8.2H244.88a8.2,8.2,0,1,0,0-16.4H105.61V8.2a8.2,8.2,0,0,0-14-5.8L2.4,91.61a8.21,8.21,0,0,0,0,11.6l89.21,89.21a8.2,8.2,0,0,0,14-5.8v-41h58.17A177.35,177.35,0,0,0,102.27,280c0,98,79.73,177.73,177.73,177.73a176.7,176.7,0,0,0,94-27h88.59a8.19,8.19,0,0,0,8.2-8.2V393.18l69.4,69.41L470.79,532V502.61a8.21,8.21,0,0,0-8.2-8.21H315.12a8.21,8.21,0,1,0,0,16.41H454.39v41a8.2,8.2,0,0,0,14,5.8l89.21-89.2a8.22,8.22,0,0,0,0-11.61ZM280,441.32C191,441.32,118.67,369,118.67,280S191,118.66,280,118.66,441.33,191,441.33,280,369,441.32,280,441.32Zm93.27-215.39a8.44,8.44,0,0,0-.19-1.1,2.09,2.09,0,0,0-.05-.21,8.11,8.11,0,0,0-.86-2l-.12-.19a6.44,6.44,0,0,0-.65-.9l-.08-.09a10.31,10.31,0,0,0-.73-.75l-.09-.09-77.94-67.85h0a19.22,19.22,0,0,0-25.14,0l-77.94,67.85-.09.09h0a8.71,8.71,0,0,0-.74.75l-.08.09a7.37,7.37,0,0,0-.65.9l-.12.19a8.5,8.5,0,0,0-.86,2c0,.08,0,.14-.05.21a8.44,8.44,0,0,0-.19,1.1.09.09,0,0,1,0,0c0,.25,0,.51,0,.77v21.87h0a19.15,19.15,0,0,0,19.14,19.14h.35v64.7a19.16,19.16,0,0,0-10.56,11.48L187.1,369.3h0a8.21,8.21,0,0,0,7.78,10.81H365.11a8.21,8.21,0,0,0,7.78-10.81l-8.51-25.36h0a19.22,19.22,0,0,0-10.56-11.48v-64.7h.34a19.15,19.15,0,0,0,19.14-19.14V226.75c0-.27,0-.52,0-.77v0ZM278.2,165.08a2.75,2.75,0,0,1,3.59,0l61.41,53.47H216.8ZM206.29,363.7l4.87-14.54h0a2.75,2.75,0,0,1,2.6-1.86H346.24a2.73,2.73,0,0,1,2.59,1.86l4.88,14.54Zm16.28-32.81V267.76H239v63.13Zm32.82,0V267.76h16.4v63.13Zm32.81,0V267.76h16.4v63.13Zm32.81,0V267.76h16.41v63.13Zm35.9-82.27a2.74,2.74,0,0,1-2.74,2.73H205.82a2.73,2.73,0,0,1-2.73-2.73V235H356.91Z"/></svg>