<?xml version="1.0" encoding="utf-8"?>
<!-- Generator: Adobe Illustrator 26.3.1, SVG Export Plug-In . SVG Version: 6.00 Build 0)  -->
<svg version="1.1" id="Capa_1" xmlns="http://www.w3.org/2000/svg" xmlns:xlink="http://www.w3.org/1999/xlink" x="0px" y="0px"
	 viewBox="0 0 700 528" style="enable-background:new 0 0 700 528;" xml:space="preserve">
<g>
	<path d="M437.8,263.8c0.9-0.1,1.7-0.5,2.4-1.1c8.8,24.8,29.3,42.2,53.1,42.2c23.8,0,44.2-17.4,53.1-42.2c0.7,0.6,1.5,1,2.4,1.1
		c4.6,0.6,9.2-5.9,10.4-14.7c1.2-8.7-1.5-16.3-6.1-16.9c-0.7-0.1-1.5,0-2.2,0.2c-1.3-36.8-26.7-66.2-57.6-66.2
		c-31,0-56.3,29.4-57.6,66.2c-0.7-0.3-1.5-0.3-2.2-0.2c-4.6,0.6-7.3,8.2-6.1,16.9C428.6,257.8,433.3,264.4,437.8,263.8L437.8,263.8z
		 M448.2,219.4c12-15.5,37.4-16.6,52,1.5c15.3,19,35,19.6,39.8,19.5c-2,30-22.2,53.7-46.8,53.7c-25.9,0-46.9-26.3-46.9-58.6
		C446.4,229.9,447,224.5,448.2,219.4L448.2,219.4z"/>
	<path d="M572.4,220.9c-2.4-19.3-10.2-37.2-22.5-51.4c-15.2-17.6-35.6-27.2-57.3-27.2c-21.7,0-42,9.7-57.3,27.2
		c-12.3,14.2-20.1,32.3-22.5,51.8c-3.6,2.1-6,6.1-5.8,10.6l1.5,34.9c0.3,5.8,4.7,10.5,10.3,11.1c4.1,11.4,10.7,21.8,19.4,30.2
		c-0.3,2.9,1,5.9,3.6,7.6l6.7,4.4c3.7,2.4,8.7,1.4,11.1-2.3c2.4-3.7,1.4-8.7-2.4-11.1l-6.7-4.4c-2.2-1.4-4.8-1.6-7.1-0.8
		c-6.8-6.8-12.2-14.9-15.8-23.8l2.2-0.1c1,0,2-0.2,3-0.5l-2.4-57.3c-1-0.2-2-0.3-3-0.3l-1.6,0.1c5.9-36.6,33.6-64.4,66.7-64.4
		c33.1,0,60.7,27.8,66.7,64.4l-0.9,0c-1,0-2,0.1-3,0.3L553,277c0.9,0.3,1.9,0.5,3,0.5l9.4,0.4c6.4,0.3,11.8-4.7,12.1-11.1l1.5-34.9
		C579.1,227.1,576.4,222.9,572.4,220.9L572.4,220.9z"/>
	<path d="M330.5,311.3h-5.4l-48.7,48.7l-48.7-48.7h-13c-63,0-114.1,51.1-114.1,114.1v21.2c0,1.1,0.1,2.2,0.1,3.4h343.7
		c0-1.1,0.1-2.2,0.1-3.4v-21.2C444.6,362.3,393.5,311.3,330.5,311.3L330.5,311.3z"/>
	<path d="M528.1,308.3h-1.7c-4.3,2.1-8.8,4.6-13.8,6.2l-18.7,80.7l-19.1-80.9c-1.8-0.6-3.5-1.3-5.3-2.1c0.3,3.6-0.6,7.1-2.6,10.1
		c-3.1,4.7-8.2,7.5-13.8,7.5c-3.2,0-6.3-0.9-9-2.7l-6.7-4.4c-3.4-2.2-5.8-5.4-6.9-9.1c-7,3-13.4,7.2-19,12.2
		c24.6,20,41.7,49.5,46.2,82h141.7c0,0-0.1-1.5-0.1-2.2v-26.5C599.3,339.7,567.5,308.3,528.1,308.3L528.1,308.3z"/>
	<path d="M379.4,219c8.6-45.7,0.8-93.7-28.2-123.2c-15.9-19.1-44.2-31.8-76.5-31.8c-28.2,0-53.3,9.7-69.8,24.8
		c-38.9,32.1-36.6,93-33,132.4c5,55.4-15.6,76.1-15.6,76.1c34.1-1.1,67.7-16.8,67.7-16.8c51.2,45.3,100.1,1.1,100.1,1.1
		c21.2,14,64.9,15.7,64.9,15.7C388.9,297.3,368.8,275.5,379.4,219L379.4,219z M329.7,245.3c-30,52.5-88.3,35.1-111.2,3.8
		c-1.5-2-2.9-4.1-4.1-6.2c10.7,4.9,22,8.4,33.6,10.4c2.4,4.4,7,7.3,12.4,7.2l13.6-0.4c7.5-0.2,13.4-6.5,13.2-14
		c-0.2-7.5-6.5-13.4-14-13.2l-13.6,0.4c-4.4,0.1-8.3,2.3-10.7,5.6c-15.8-2.9-30.9-8.9-44.3-17.7c-7.7-25.1-3.9-49.3,9.9-51.1
		c19-2.5,34.1-17.1,34.1-17.1c-15.7,21.2-7.3,47-7.3,47s-1.7-14.5,32.4-28c34.1-13.4,40.8-31.9,40.8-31.9c11.2,30.2,33,31.9,33,31.9
		C347.6,172,347.6,214,329.7,245.3L329.7,245.3z"/>
	<g>
		<defs>
			<line id="SVGID_1_" x1="855.6" y1="1321" x2="155.6" y2="1321"/>
		</defs>
		<clipPath id="SVGID_00000176724103874040892980000016748380594595285416_">
			<use xlink:href="#SVGID_1_"  style="overflow:visible;"/>
		</clipPath>
	</g>
	<g>
		<defs>
			<line id="SVGID_00000072282293641838483740000005020003736359363463_" x1="1012.7" y1="1321" x2="312.7" y2="1321"/>
		</defs>
		<clipPath id="SVGID_00000120531149850956270090000012502225080183103883_">
			<use xlink:href="#SVGID_00000072282293641838483740000005020003736359363463_"  style="overflow:visible;"/>
		</clipPath>
	</g>
	<g>
		<defs>
			<line id="SVGID_00000035519209935907990750000000048118702258810548_" x1="1055.9" y1="1321" x2="355.9" y2="1321"/>
		</defs>
		<clipPath id="SVGID_00000161589409863499749120000017089804059339856040_">
			<use xlink:href="#SVGID_00000035519209935907990750000000048118702258810548_"  style="overflow:visible;"/>
		</clipPath>
	</g>
	<g>
		<defs>
			<line id="SVGID_00000035525129902465085900000009398784067449745293_" x1="1101.1" y1="1321" x2="401.1" y2="1321"/>
		</defs>
		<clipPath id="SVGID_00000038371929090673667390000014298106485654355597_">
			<use xlink:href="#SVGID_00000035525129902465085900000009398784067449745293_"  style="overflow:visible;"/>
		</clipPath>
	</g>
	<g>
		<defs>
			<line id="SVGID_00000041992876635615962990000004691257592660158088_" x1="782.2" y1="1349" x2="82.2" y2="1349"/>
		</defs>
		<clipPath id="SVGID_00000161592517959681201040000014211413747694501774_">
			<use xlink:href="#SVGID_00000041992876635615962990000004691257592660158088_"  style="overflow:visible;"/>
		</clipPath>
	</g>
	<g>
		<defs>
			<line id="SVGID_00000168829420210253058130000015127299802664067239_" x1="854.2" y1="1349" x2="154.2" y2="1349"/>
		</defs>
		<clipPath id="SVGID_00000132050655047819545070000000354383690531581574_">
			<use xlink:href="#SVGID_00000168829420210253058130000015127299802664067239_"  style="overflow:visible;"/>
		</clipPath>
	</g>
	<g>
		<defs>
			<line id="SVGID_00000046330698025350616330000003291263421226856115_" x1="887.5" y1="1349" x2="187.5" y2="1349"/>
		</defs>
		<clipPath id="SVGID_00000105402839684181153300000017696393006297958312_">
			<use xlink:href="#SVGID_00000046330698025350616330000003291263421226856115_"  style="overflow:visible;"/>
		</clipPath>
	</g>
	<g>
		<defs>
			<line id="SVGID_00000019677381619920712210000008700462515607600017_" x1="939.6" y1="1349" x2="239.6" y2="1349"/>
		</defs>
		<clipPath id="SVGID_00000010275619621880933430000001366878018002292668_">
			<use xlink:href="#SVGID_00000019677381619920712210000008700462515607600017_"  style="overflow:visible;"/>
		</clipPath>
	</g>
	<g>
		<defs>
			<line id="SVGID_00000090268773880145831590000015958713544454375607_" x1="958.9" y1="1349" x2="258.9" y2="1349"/>
		</defs>
		<clipPath id="SVGID_00000088107052246635499340000014255047353958848439_">
			<use xlink:href="#SVGID_00000090268773880145831590000015958713544454375607_"  style="overflow:visible;"/>
		</clipPath>
	</g>
	<g>
		<defs>
			<line id="SVGID_00000124132715842390682130000008681152823751175314_" x1="978.8" y1="1349" x2="278.8" y2="1349"/>
		</defs>
		<clipPath id="SVGID_00000050648814294754519420000014957573993272085143_">
			<use xlink:href="#SVGID_00000124132715842390682130000008681152823751175314_"  style="overflow:visible;"/>
		</clipPath>
	</g>
	<g>
		<defs>
			<line id="SVGID_00000179628302756793516020000014394922066738532516_" x1="1029" y1="1349" x2="329" y2="1349"/>
		</defs>
		<clipPath id="SVGID_00000018943282515133496690000001759122643265310640_">
			<use xlink:href="#SVGID_00000179628302756793516020000014394922066738532516_"  style="overflow:visible;"/>
		</clipPath>
	</g>
	<g>
		<defs>
			<line id="SVGID_00000017499597209649950270000000500500129574337409_" x1="1042.8" y1="1349" x2="342.8" y2="1349"/>
		</defs>
		<clipPath id="SVGID_00000097491356317203885500000016646055790530233486_">
			<use xlink:href="#SVGID_00000017499597209649950270000000500500129574337409_"  style="overflow:visible;"/>
		</clipPath>
	</g>
	<g>
		<defs>
			<line id="SVGID_00000171691817810009358520000011197363098290375855_" x1="1071.7" y1="1349" x2="371.7" y2="1349"/>
		</defs>
		<clipPath id="SVGID_00000134209391411826005180000002867872709021381265_">
			<use xlink:href="#SVGID_00000171691817810009358520000011197363098290375855_"  style="overflow:visible;"/>
		</clipPath>
	</g>
	<g>
		<defs>
			<line id="SVGID_00000115476237125353225860000014433472416862722205_" x1="1107.2" y1="1349" x2="407.2" y2="1349"/>
		</defs>
		<clipPath id="SVGID_00000013157498487213323580000007609438626474729392_">
			<use xlink:href="#SVGID_00000115476237125353225860000014433472416862722205_"  style="overflow:visible;"/>
		</clipPath>
	</g>
</g>
</svg>
