<?xml version="1.0" encoding="utf-8"?>
<!-- Generator: Adobe Illustrator 26.3.1, SVG Export Plug-In . SVG Version: 6.00 Build 0)  -->
<svg version="1.1" id="Capa_1" xmlns="http://www.w3.org/2000/svg" xmlns:xlink="http://www.w3.org/1999/xlink" x="0px" y="0px"
	 viewBox="0 0 541.5 420" style="enable-background:new 0 0 541.5 420;" xml:space="preserve">
<g>
	<path d="M494,219.4h-29.7c-5,0-9-3.9-9-9c0-5,3.9-9,9-9H494c5,0,9,3.9,9,9C503,215,499,219.4,494,219.4z"/>
	<path d="M324.9,219.4H54.4c-5,0-9-3.9-9-9c0-5,3.9-9,9-9h271c5,0,9,3.9,9,9C333.8,215,329.9,219.4,324.9,219.4L324.9,219.4z"/>
	<path d="M394.3,262.6c-29.1,0-52.1-23.5-52.1-52.1c0-29.1,23.5-52.1,52.1-52.1c29.1,0,52.1,23.5,52.1,52.1
		C446.4,239.1,422.9,262.6,394.3,262.6z M394.3,175.8c-19,0-34.2,15.7-34.2,34.2c0,19,15.7,34.2,34.2,34.2c19,0,34.2-15.7,34.2-34.2
		S413.4,175.8,394.3,175.8z"/>
	<path d="M61.1,346h29.7c5,0,9-3.9,9-9s-3.9-9-9-9H61.1c-5,0-9,3.9-9,9C52.2,342.1,56.1,346,61.1,346z"/>
	<path d="M229.7,346h271c5,0,9-3.9,9-9s-3.9-9-9-9l-271,0c-5,0-9,3.9-9,9C220.7,342.1,224.6,346,229.7,346L229.7,346z"/>
	<path d="M108.2,337c0-29.1,23.5-52.1,52.1-52.1c29.1,0,52.1,23.5,52.1,52.1c0,29.1-23.5,52.1-52.1,52.1
		C131.7,389.1,108.2,365.6,108.2,337z M126.1,337c0,19,15.7,34.2,34.2,34.2c19,0,34.2-15.7,34.2-34.2c0-19-15.7-34.2-34.2-34.2
		C141.8,302.9,126.1,318,126.1,337z"/>
	<path d="M54.4,92.3h29.7c5,0,9-3.9,9-9c0-5-3.9-9-9-9l-29.7,0c-5,0-9,3.9-9,9C45.4,88.4,49.4,92.3,54.4,92.3z"/>
	<path d="M223,92.3h271c5,0,9-3.9,9-9c0-5-3.9-9-9-9l-271,0c-5,0-9,3.9-9,9C214,88.4,217.9,92.3,223,92.3z"/>
	<path d="M101.4,83.4c0-29.1,23.5-52.1,52.1-52.1c29.1,0,52.1,23.5,52.1,52.1c0,29.1-23.5,52.1-52.1,52.1
		C125,136,101.4,112.5,101.4,83.4z M119.4,83.4c0,19,15.7,34.2,34.2,34.2c19,0,34.2-15.7,34.2-34.2c0-19-15.7-34.2-34.2-34.2
		S119.4,64.3,119.4,83.4z"/>
</g>
</svg>
