<svg  viewBox="0 0 18 30" fill="none" xmlns="http://www.w3.org/2000/svg">
<path d="M8.03 0.35553C8.30108 0.125977 8.64478 0 9 0C9.35522 0 9.69892 0.125977 9.97 0.35553L17.47 6.71853C17.6361 6.85933 17.7695 7.03459 17.861 7.23214C17.9526 7.42969 18 7.64481 18 7.86253V17.2655C18 17.6634 17.842 18.0449 17.5607 18.3262C17.2794 18.6075 16.8978 18.7655 16.5 18.7655H10.75C10.5511 18.7655 10.3603 18.6865 10.2197 18.5459C10.079 18.4052 10 18.2144 10 18.0155V11.7655H8V18.0155C8 18.2144 7.92098 18.4052 7.78033 18.5459C7.63968 18.6865 7.44891 18.7655 7.25 18.7655H1.5C1.10218 18.7655 0.720644 18.6075 0.43934 18.3262C0.158035 18.0449 0 17.6634 0 17.2655V7.86253C0 7.42253 0.194 7.00353 0.53 6.71853L8.03 0.35553ZM9 1.49953L1.5 7.86253V17.2655H6.5V11.0155C6.5 10.8166 6.57902 10.6259 6.71967 10.4852C6.86032 10.3445 7.05109 10.2655 7.25 10.2655H10.75C10.9489 10.2655 11.1397 10.3445 11.2803 10.4852C11.421 10.6259 11.5 10.8166 11.5 11.0155V17.2655H16.5V7.86253L9 1.49953Z" fill="#001F60"/>
<path d="M1.03906 27.7655V23.4823H1.94727V27.7655H1.03906ZM4.81543 24.4286C5.16504 24.4286 5.44629 24.5243 5.65918 24.7157C5.87207 24.9052 5.97852 25.2098 5.97852 25.6298V27.7655H5.08496V25.8524C5.08496 25.618 5.04199 25.4413 4.95605 25.3221C4.87207 25.203 4.73926 25.1434 4.55762 25.1434C4.28418 25.1434 4.09766 25.2362 3.99805 25.4218C3.89844 25.6073 3.84863 25.8749 3.84863 26.2245V27.7655H2.95508V24.4901H3.6377L3.75781 24.9091H3.80762C3.87793 24.7958 3.96484 24.704 4.06836 24.6337C4.17383 24.5634 4.29004 24.5116 4.41699 24.4784C4.5459 24.4452 4.67871 24.4286 4.81543 24.4286ZM7.79199 24.4901V27.7655H6.89844V24.4901H7.79199ZM7.34668 23.2069C7.47949 23.2069 7.59375 23.2382 7.68945 23.3007C7.78516 23.3612 7.83301 23.4755 7.83301 23.6434C7.83301 23.8094 7.78516 23.9247 7.68945 23.9891C7.59375 24.0516 7.47949 24.0829 7.34668 24.0829C7.21191 24.0829 7.09668 24.0516 7.00098 23.9891C6.90723 23.9247 6.86035 23.8094 6.86035 23.6434C6.86035 23.4755 6.90723 23.3612 7.00098 23.3007C7.09668 23.2382 7.21191 23.2069 7.34668 23.2069ZM10.0625 27.8241C9.73828 27.8241 9.46191 27.7655 9.2334 27.6483C9.00488 27.5292 8.83105 27.3456 8.71191 27.0975C8.59277 26.8495 8.5332 26.5321 8.5332 26.1454C8.5332 25.745 8.60059 25.4188 8.73535 25.1669C8.87207 24.913 9.06055 24.7264 9.30078 24.6073C9.54297 24.4882 9.82324 24.4286 10.1416 24.4286C10.3682 24.4286 10.5635 24.451 10.7275 24.496C10.8936 24.5389 11.0381 24.5907 11.1611 24.6512L10.8975 25.3427C10.7568 25.286 10.626 25.2401 10.5049 25.205C10.3838 25.1678 10.2627 25.1493 10.1416 25.1493C9.98535 25.1493 9.85547 25.1864 9.75195 25.2606C9.64844 25.3329 9.57129 25.4423 9.52051 25.5887C9.46973 25.7352 9.44434 25.9188 9.44434 26.1395C9.44434 26.3563 9.47168 26.536 9.52637 26.6786C9.58105 26.8212 9.66016 26.9276 9.76367 26.9979C9.86719 27.0663 9.99316 27.1005 10.1416 27.1005C10.3271 27.1005 10.4922 27.076 10.6367 27.0272C10.7812 26.9764 10.9219 26.9061 11.0586 26.8163V27.5809C10.9219 27.6669 10.7783 27.7284 10.6279 27.7655C10.4795 27.8046 10.291 27.8241 10.0625 27.8241ZM12.7139 24.4901V27.7655H11.8203V24.4901H12.7139ZM12.2686 23.2069C12.4014 23.2069 12.5156 23.2382 12.6113 23.3007C12.707 23.3612 12.7549 23.4755 12.7549 23.6434C12.7549 23.8094 12.707 23.9247 12.6113 23.9891C12.5156 24.0516 12.4014 24.0829 12.2686 24.0829C12.1338 24.0829 12.0186 24.0516 11.9229 23.9891C11.8291 23.9247 11.7822 23.8094 11.7822 23.6434C11.7822 23.4755 11.8291 23.3612 11.9229 23.3007C12.0186 23.2382 12.1338 23.2069 12.2686 23.2069ZM16.6309 26.1219C16.6309 26.3954 16.5938 26.6376 16.5195 26.8485C16.4473 27.0594 16.3408 27.2382 16.2002 27.3846C16.0615 27.5292 15.8936 27.6385 15.6963 27.7128C15.501 27.787 15.2803 27.8241 15.0342 27.8241C14.8037 27.8241 14.5918 27.787 14.3984 27.7128C14.207 27.6385 14.04 27.5292 13.8975 27.3846C13.7568 27.2382 13.6475 27.0594 13.5693 26.8485C13.4932 26.6376 13.4551 26.3954 13.4551 26.1219C13.4551 25.7587 13.5195 25.451 13.6484 25.1991C13.7773 24.9471 13.9609 24.7557 14.1992 24.6249C14.4375 24.494 14.7217 24.4286 15.0518 24.4286C15.3584 24.4286 15.6299 24.494 15.8662 24.6249C16.1045 24.7557 16.291 24.9471 16.4258 25.1991C16.5625 25.451 16.6309 25.7587 16.6309 26.1219ZM14.3662 26.1219C14.3662 26.3368 14.3896 26.5175 14.4365 26.6639C14.4834 26.8104 14.5566 26.9208 14.6562 26.995C14.7559 27.0692 14.8857 27.1063 15.0459 27.1063C15.2041 27.1063 15.332 27.0692 15.4297 26.995C15.5293 26.9208 15.6016 26.8104 15.6465 26.6639C15.6934 26.5175 15.7168 26.3368 15.7168 26.1219C15.7168 25.9052 15.6934 25.7255 15.6465 25.5829C15.6016 25.4384 15.5293 25.33 15.4297 25.2577C15.3301 25.1854 15.2002 25.1493 15.04 25.1493C14.8037 25.1493 14.6318 25.2303 14.5244 25.3925C14.4189 25.5546 14.3662 25.7977 14.3662 26.1219Z" fill="#25275E"/>
</svg>
