<?xml version="1.0" encoding="utf-8"?>
<!-- Generator: Adobe Illustrator 26.3.1, SVG Export Plug-In . SVG Version: 6.00 Build 0)  -->
<svg version="1.1" id="Capa_1" xmlns="http://www.w3.org/2000/svg" xmlns:xlink="http://www.w3.org/1999/xlink" x="0px" y="0px"
	 viewBox="0 0 673 436" style="enable-background:new 0 0 673 436;" xml:space="preserve">
<path d="M69.9,415.7c-12.5,0-23.5-3.7-32.9-11.1c-9.4-7.4-14.1-16-14.1-25.8v-320c0-9.8,4.7-18.5,14.1-25.8
	c9.4-7.4,20.3-11.1,32.9-11.1H602c12.5,0,23.5,3.7,32.9,11.1c9.4,7.4,14.1,16,14.1,25.8v320c0,9.8-4.7,18.5-14.1,25.8
	c-9.4,7.4-20.3,11.1-32.9,11.1H69.9z M336,229.9L69.9,92.6v286.2H602V92.6L336,229.9z M336,192.9L598.9,58.8H73.9L336,192.9z
	 M69.9,92.6V58.8v320V92.6z"/>
</svg>
