<?xml version="1.0" encoding="utf-8"?>
<!-- Generator: Adobe Illustrator 26.3.1, SVG Export Plug-In . SVG Version: 6.00 Build 0)  -->
<svg version="1.1" id="Capa_1" xmlns="http://www.w3.org/2000/svg" xmlns:xlink="http://www.w3.org/1999/xlink" x="0px" y="0px"
	 viewBox="0 0 594 564.9" style="enable-background:new 0 0 594 564.9;" xml:space="preserve">
<g>
	<path d="M544.3,391.2L479.2,326c-12.9-13.3-28.4-20.3-44.8-20.3c-16.4,0-32,7-45.2,20.2l-33.9,33.9c-1.7-0.9-3.3-1.7-4.9-2.5
		c-4-2-7.8-3.9-11.1-6c-34.4-21.8-65.7-50.4-95.9-87.3c-13.3-16.8-22.5-30.9-29.1-44.8c8.6-8,16.7-16.2,24.3-24.1
		c3.2-3.3,6.6-6.7,9.9-10c13.6-13.6,20.7-29.4,20.7-45.7c0-16.4-7.2-32.2-20.7-45.7l-32.3-32.3c-3.7-3.7-7.2-7.2-10.8-11l-0.2-0.2
		c-7.1-7.3-14.7-15-22.3-22C170.1,15.6,154.7,9,138.4,9c-16.2,0-31.8,6.7-45.1,19.4L52.6,69.1c-16.5,16.3-25.8,36.2-27.7,59.2
		c-2.2,27.3,2.8,56.2,15.6,90.7c19.4,52.6,48.5,101.3,91.7,153.2c52.3,62.6,115.5,112.1,187.8,147.1l0.1,0.1
		c27.9,13.2,65.4,28.8,106.8,31.4h0.5c2.4,0.1,4.9,0.2,7.5,0.2c29.7,0,53.6-10.3,73.2-31.4c0.3-0.4,0.8-0.8,1.2-1.4
		c5.5-6.5,11.7-12.6,18.4-19l1.5-1.5c6.2-6,11.2-10.9,15.5-15.4c13.1-13.6,20-29.4,19.9-45.8C564.5,420.1,557.5,404.4,544.3,391.2
		L544.3,391.2z M70,132.1c1.1-12.4,5.7-22.3,14.5-31.1l40.3-40.3c4.4-4.3,9.1-6.6,13.4-6.6c5.2,0,9.9,3.6,12.9,6.6l0.3,0.3
		c6.1,5.7,12,11.7,18.3,18l2.8,2.9c1.9,1.9,3.8,3.8,5.7,5.8c1.9,1.9,3.7,3.8,5.6,5.7l32.4,32.4c3.4,3.4,7.4,8.5,7.4,13.7
		c0,5.1-4,10.3-7.4,13.7c-1.7,1.7-3.4,3.4-5.1,5.1c-1.6,1.7-3.3,3.4-5,5.1l-2.3,2.3c-9.1,9.2-17.8,18-27.2,26.4l-0.9,0.9
		c-14.2,14.2-9.3,28.8-7.7,33.6c0.1,0.4,0.2,0.7,0.3,1l0.2,0.5c8.9,21.2,21,41,39.4,64.1l0.1,0.1c33.1,40.8,68,72.6,106.8,97.2
		c4.3,2.8,8.6,5,12.8,7.1c0.8,0.4,1.6,0.8,2.4,1.2l0.1,0.1c4,2,7.8,3.9,11.1,6l1,0.5c0.3,0.2,0.7,0.4,1,0.5
		c4.8,2.5,9.8,3.7,14.8,3.7c8.4,0,16.1-3.4,22.8-10.1l40.6-40.6c3.2-3.2,8-6.9,13.2-6.9c5.4,0,10,4.2,12.4,6.7l0.1,0.1l65.5,65.4
		c9.4,9.4,9.2,17.7-0.4,27.8l-0.1,0.1c-4.6,4.9-9.5,9.6-14.1,14.1l-1.3,1.3c-7.3,7.1-14.9,14.4-21.9,22.9
		c-10.7,11.5-22.9,16.6-39.5,16.6c-1.5,0-3.3-0.1-5-0.2c-34-2.2-66-15.6-90.1-27.1c-66.4-32.2-124.5-77.7-172.7-135.3
		c-39.8-47.9-66.4-92.3-84.1-140C72.6,175.4,68.4,152.7,70,132.1L70,132.1z"/>
</g>
</svg>
