<?xml version="1.0" encoding="utf-8"?>
<!-- Generator: Adobe Illustrator 26.3.1, SVG Export Plug-In . SVG Version: 6.00 Build 0)  -->
<svg xmlns="http://www.w3.org/2000/svg" xmlns:xlink="http://www.w3.org/1999/xlink" x="0px" y="0px"
	 viewBox="0 0 700 518" style="enable-background:new 0 0 700 518;" xml:space="preserve">
<style type="text/css">
	.st0{fill-rule:evenodd;clip-rule:evenodd;}
</style>
<path class="st0" d="M217.9,153c-3.7,0-7.3,1.5-10,4.1c-2.6,2.6-4.1,6.2-4.1,10v22.3c0,3.7,1.5,7.3,4.1,9.9c2.6,2.6,6.2,4.1,9.9,4.1
	c7.7,0,13.9-6.2,14-13.9V181h224.4v163.1H341.6c-6-20.2-24.9-35-46.9-35c-22.1,0-40.8,14.8-46.9,35h-29.8c-3.7,0-7.3,1.5-10,4.1
	c-2.6,2.6-4.1,6.2-4.1,10c0,3.7,1.5,7.3,4.1,9.9c2.6,2.6,6.2,4.1,9.9,4.1h29.9c6.1,20.1,24.8,34.8,46.8,34.8s40.7-14.8,46.9-34.8
	h154.8c6.1,20.1,24.9,34.8,46.9,34.8s40.7-14.8,46.8-34.8H616c7.7,0,13.9-6.3,13.9-13.9v-81.9c0-2.7-0.7-5.3-2.2-7.5L581.4,196
	c-2.6-4-7-6.4-11.8-6.4h-85.4v-22.5c0-3.7-1.5-7.3-4.1-10c-2.6-2.6-6.2-4.1-10-4.1L217.9,153z M193.1,213.9c-3.7,0-7.3,1.4-9.9,4.1
	c-2.6,2.6-4.1,6.2-4.1,9.9c0,3.7,1.5,7.3,4.1,10c2.6,2.6,6.2,4.1,10,4.1h85.5c3.7,0,7.3-1.5,10-4.1c2.6-2.6,4.1-6.2,4.1-10
	c0-3.7-1.5-7.3-4.1-9.9c-2.6-2.6-6.2-4.1-9.9-4.1H193.1z M484.2,217.6H562l40,62.6v63.9H590c-6-20.2-24.8-35-46.9-35
	s-40.9,14.8-46.9,35h-11.9L484.2,217.6z M138.6,260.1c-3.7,0-7.3,1.5-9.9,4.1c-2.6,2.6-4.1,6.2-4.1,9.9c0,7.7,6.3,14,14,14h112.7
	c3.7,0,7.3-1.4,9.9-4.1c2.6-2.6,4.1-6.2,4.1-9.9c0-3.7-1.5-7.3-4.1-10c-2.6-2.6-6.2-4.1-10-4.1L138.6,260.1z M84,306.4
	c-3.7,0-7.3,1.5-9.9,4.1c-2.6,2.6-4.1,6.2-4.1,9.9c0,7.7,6.3,13.9,13.9,13.9h140c3.7,0,7.3-1.4,9.9-4.1c2.6-2.6,4.1-6.2,4.1-9.9
	c0-3.7-1.5-7.3-4.1-10c-2.6-2.6-6.2-4.1-10-4.1L84,306.4z M294.6,337.1c11.8,0,21,9.2,21,20.9s-9.2,21-21,21c-11.8,0-21-9.3-21-21
	S282.9,337.1,294.6,337.1z M543.1,337.1c11.8,0,20.9,9.2,20.9,20.9s-9.1,21-20.9,21s-21-9.3-21-21S531.4,337.1,543.1,337.1z"/>
</svg>
