<svg width="17" height="31" viewBox="0 0 17 31" fill="none" xmlns="http://www.w3.org/2000/svg">
<path d="M8.5 8.58275C10.5711 8.58275 12.25 6.97098 12.25 4.98275C12.25 2.99453 10.5711 1.38275 8.5 1.38275C6.42893 1.38275 4.75 2.99453 4.75 4.98275C4.75 6.97098 6.42893 8.58275 8.5 8.58275Z" stroke="#001F60" stroke-width="1.5"/>
<path d="M16 15.3327C16 17.5692 16 19.3827 8.5 19.3827C1 19.3827 1 17.5692 1 15.3327C1 13.0962 4.35812 11.2827 8.5 11.2827C12.6419 11.2827 16 13.0962 16 15.3327Z" stroke="#001F60" stroke-width="1.5"/>
<path d="M1.90723 24.0995C2.45996 24.0995 2.86328 24.2187 3.11719 24.457C3.37109 24.6933 3.49805 25.0195 3.49805 25.4355C3.49805 25.623 3.46973 25.8027 3.41309 25.9745C3.35645 26.1445 3.26367 26.2958 3.13477 26.4286C3.00781 26.5615 2.83789 26.6669 2.625 26.7451C2.41211 26.8212 2.14941 26.8593 1.83691 26.8593H1.44727V28.3828H0.539062V24.0995H1.90723ZM1.86035 24.8437H1.44727V26.1152H1.74609C1.91602 26.1152 2.06348 26.0927 2.18848 26.0478C2.31348 26.0029 2.41016 25.9326 2.47852 25.8369C2.54688 25.7411 2.58105 25.6181 2.58105 25.4677C2.58105 25.2568 2.52246 25.1005 2.40527 24.999C2.28809 24.8954 2.10645 24.8437 1.86035 24.8437ZM5.58691 25.0458C5.88965 25.0458 6.15039 25.1044 6.36914 25.2216C6.58789 25.3369 6.75684 25.5048 6.87598 25.7255C6.99512 25.9462 7.05469 26.2158 7.05469 26.5341V26.9677H4.94238C4.95215 27.2197 5.02734 27.4179 5.16797 27.5624C5.31055 27.705 5.50781 27.7763 5.75977 27.7763C5.96875 27.7763 6.16016 27.7548 6.33398 27.7119C6.50781 27.6689 6.68652 27.6044 6.87012 27.5185V28.2099C6.70801 28.29 6.53809 28.3486 6.36035 28.3857C6.18457 28.4228 5.9707 28.4413 5.71875 28.4413C5.39062 28.4413 5.09961 28.3808 4.8457 28.2597C4.59375 28.1386 4.39551 27.954 4.25098 27.706C4.1084 27.4579 4.03711 27.1454 4.03711 26.7685C4.03711 26.3857 4.10156 26.0673 4.23047 25.8134C4.36133 25.5576 4.54297 25.3661 4.77539 25.2392C5.00781 25.1103 5.27832 25.0458 5.58691 25.0458ZM5.59277 25.6816C5.41895 25.6816 5.27441 25.7372 5.15918 25.8486C5.0459 25.9599 4.98047 26.1347 4.96289 26.373H6.2168C6.21484 26.2402 6.19043 26.122 6.14355 26.0185C6.09863 25.915 6.03027 25.8329 5.93848 25.7724C5.84863 25.7119 5.7334 25.6816 5.59277 25.6816ZM9.60938 25.0458C9.6543 25.0458 9.70605 25.0488 9.76465 25.0546C9.8252 25.0585 9.87402 25.0644 9.91113 25.0722L9.84375 25.9101C9.81445 25.9003 9.77246 25.8935 9.71777 25.8896C9.66504 25.8837 9.61914 25.8808 9.58008 25.8808C9.46484 25.8808 9.35254 25.8954 9.24316 25.9247C9.13574 25.954 9.03906 26.0019 8.95312 26.0683C8.86719 26.1328 8.79883 26.2187 8.74805 26.3261C8.69922 26.4316 8.6748 26.5615 8.6748 26.7158V28.3828H7.78125V25.1074H8.45801L8.58984 25.6581H8.63379C8.69824 25.5468 8.77832 25.4453 8.87402 25.3535C8.97168 25.2597 9.08203 25.1855 9.20508 25.1308C9.33008 25.0742 9.46484 25.0458 9.60938 25.0458ZM12.3164 25.7783H11.543V28.3828H10.6494V25.7783H10.1572V25.3476L10.6494 25.1074V24.8671C10.6494 24.5878 10.6963 24.371 10.79 24.2167C10.8857 24.0605 11.0195 23.9511 11.1914 23.8886C11.3652 23.8242 11.5703 23.7919 11.8066 23.7919C11.9805 23.7919 12.1387 23.8066 12.2812 23.8359C12.4238 23.8632 12.54 23.8945 12.6299 23.9296L12.4014 24.5859C12.333 24.5644 12.2588 24.5449 12.1787 24.5273C12.0986 24.5097 12.0068 24.5009 11.9033 24.5009C11.7783 24.5009 11.6865 24.539 11.6279 24.6152C11.5713 24.6894 11.543 24.7851 11.543 24.9023V25.1074H12.3164V25.7783ZM13.7227 25.1074V28.3828H12.8291V25.1074H13.7227ZM13.2773 23.8242C13.4102 23.8242 13.5244 23.8554 13.6201 23.9179C13.7158 23.9785 13.7637 24.0927 13.7637 24.2607C13.7637 24.4267 13.7158 24.5419 13.6201 24.6064C13.5244 24.6689 13.4102 24.7001 13.2773 24.7001C13.1426 24.7001 13.0273 24.6689 12.9316 24.6064C12.8379 24.5419 12.791 24.4267 12.791 24.2607C12.791 24.0927 12.8379 23.9785 12.9316 23.9179C13.0273 23.8554 13.1426 23.8242 13.2773 23.8242ZM15.5537 28.3828H14.6602V23.8242H15.5537V28.3828Z" fill="#25275E"/>
</svg>
