<svg width="258" height="221" viewBox="0 0 258 221" fill="none" xmlns="http://www.w3.org/2000/svg">
<g clip-path="url(#clip0_65_641)">
<path d="M19.072 112.135C20.3479 112.135 21.3823 111.05 21.3823 109.712C21.3823 108.373 20.3479 107.288 19.072 107.288C17.7961 107.288 16.7617 108.373 16.7617 109.712C16.7617 111.05 17.7961 112.135 19.072 112.135Z" fill="white"/>
<path d="M32.4913 80.6856H31.8906V80.0555C31.891 79.8407 31.81 79.6345 31.6654 79.4822C31.5209 79.33 31.3246 79.2443 31.1197 79.2439C31.0183 79.2437 30.9178 79.2645 30.8241 79.305C30.7303 79.3455 30.6451 79.405 30.5732 79.4801C30.4281 79.6318 30.3464 79.8377 30.346 80.0525V80.6856H29.7453C29.6439 80.6854 29.5435 80.7062 29.4497 80.7468C29.3559 80.7873 29.2707 80.8468 29.1988 80.9219C29.127 80.997 29.07 81.0862 29.031 81.1844C28.992 81.2826 28.9719 81.3879 28.9717 81.4943C28.9715 81.6007 28.9913 81.7061 29.03 81.8045C29.0686 81.9028 29.1253 81.9922 29.1969 82.0676C29.2685 82.1429 29.3536 82.2028 29.4472 82.2437C29.5408 82.2846 29.6412 82.3057 29.7426 82.3059H30.346V82.936C30.3456 83.1508 30.4266 83.357 30.5712 83.5093C30.7158 83.6615 30.912 83.7472 31.1169 83.7476C31.3217 83.748 31.5183 83.663 31.6634 83.5114C31.8085 83.3597 31.8902 83.1538 31.8906 82.939V82.3059H32.4913C32.6961 82.3065 32.8928 82.2217 33.038 82.0702C33.1832 81.9187 33.2652 81.7129 33.2657 81.498C33.2663 81.2832 33.1855 81.0769 33.0411 80.9245C32.8967 80.7722 32.7005 80.6862 32.4956 80.6856H32.494L32.4913 80.6856Z" fill="#25275E"/>
<path d="M159.836 51.5488C173.276 51.5488 184.172 40.1196 184.172 26.0209C184.172 11.9222 173.276 0.49292 159.836 0.49292C146.396 0.49292 135.5 11.9222 135.5 26.0209C135.5 40.1196 146.396 51.5488 159.836 51.5488Z" fill="#25275E"/>
<path d="M132.188 178.417C147.129 178.417 159.241 175.766 159.241 172.496C159.241 169.227 147.129 166.576 132.188 166.576C117.247 166.576 105.135 169.227 105.135 172.496C105.135 175.766 117.247 178.417 132.188 178.417Z" fill="#EB3E20"/>
<path d="M159.67 38.7392C134.871 38.7369 115.445 34.0208 115.445 28.0026C115.446 24.3945 122.329 21.1758 134.331 19.1722C134.374 19.1647 134.417 19.1661 134.46 19.1763C134.502 19.1865 134.542 19.2054 134.577 19.2318C134.612 19.2582 134.642 19.2916 134.665 19.3301C134.688 19.3687 134.704 19.4116 134.711 19.4564C134.718 19.5013 134.717 19.5472 134.707 19.5915C134.697 19.6358 134.679 19.6776 134.654 19.7146C134.629 19.7517 134.597 19.7831 134.561 19.8072C134.524 19.8313 134.483 19.8476 134.44 19.8551L134.439 19.8553L134.435 19.856C123.129 21.7435 116.106 24.8652 116.105 28.0027C116.105 33.445 136.055 38.0446 159.67 38.0468C183.285 38.049 203.236 33.4532 203.236 28.0109C203.236 24.8602 196.169 21.7297 184.791 19.8412C184.748 19.8344 184.707 19.8188 184.67 19.7953C184.632 19.7717 184.6 19.7408 184.574 19.7041C184.549 19.6674 184.53 19.6258 184.52 19.5816C184.509 19.5374 184.507 19.4915 184.514 19.4465C184.52 19.4015 184.535 19.3582 184.558 19.3193C184.58 19.2804 184.61 19.2465 184.645 19.2196C184.68 19.1927 184.72 19.1732 184.762 19.1625C184.804 19.1517 184.848 19.1497 184.891 19.1567L184.892 19.1569L184.894 19.1572C196.97 21.1617 203.896 24.3888 203.896 28.011C203.896 34.0292 184.469 38.7416 159.67 38.7392Z" fill="#3F3D56"/>
<path d="M161.437 34.6153C140.067 47.8148 121.047 54.0921 118.136 48.9061C116.391 45.7969 120.765 39.3592 130.138 31.2438C130.171 31.2146 130.209 31.1925 130.25 31.1788C130.292 31.1651 130.335 31.1601 130.378 31.164C130.422 31.168 130.464 31.1808 130.502 31.2018C130.541 31.2228 130.575 31.2515 130.603 31.2863C130.63 31.3212 130.651 31.3614 130.665 31.4048C130.678 31.4481 130.682 31.4937 130.679 31.539C130.675 31.5843 130.663 31.6284 130.643 31.6687C130.623 31.7091 130.595 31.7449 130.562 31.7741L130.561 31.775L130.558 31.7778C121.729 39.4226 117.188 45.8511 118.705 48.5548C121.338 53.2444 140.753 46.5877 161.102 34.0186C181.452 21.4495 196.419 6.86896 193.787 2.17928C192.263 -0.535699 184.658 0.529191 173.941 4.95867C173.901 4.97555 173.858 4.98396 173.814 4.9834C173.771 4.98284 173.728 4.97333 173.688 4.95542C173.648 4.9375 173.612 4.91153 173.582 4.87899C173.552 4.84645 173.528 4.80797 173.512 4.76575C173.496 4.72353 173.488 4.6784 173.488 4.63294C173.489 4.58747 173.498 4.54257 173.515 4.50078C173.532 4.45898 173.557 4.42113 173.588 4.38938C173.619 4.35763 173.655 4.33259 173.696 4.31571L173.697 4.31529L173.699 4.31438C185.074 -0.387047 192.603 -1.29332 194.356 1.82794C197.267 7.01393 182.807 21.4158 161.437 34.6153Z" fill="#3F3D56"/>
<path d="M132.953 175.637C143.089 175.637 151.305 174.208 151.305 172.446C151.305 170.683 143.089 169.254 132.953 169.254C122.818 169.254 114.602 170.683 114.602 172.446C114.602 174.208 122.818 175.637 132.953 175.637Z" fill="#E6E6E6"/>
<path d="M71.7899 209.374C88.8421 209.374 102.666 206.349 102.666 202.617C102.666 198.886 88.8421 195.861 71.7899 195.861C54.7376 195.861 40.9141 198.886 40.9141 202.617C40.9141 206.349 54.7376 209.374 71.7899 209.374Z" fill="#EB3E20"/>
<path d="M197.536 221C222.961 221 243.573 216.489 243.573 210.925C243.573 205.361 222.961 200.851 197.536 200.851C172.11 200.851 151.498 205.361 151.498 210.925C151.498 216.489 172.11 221 197.536 221Z" fill="#EB3E20"/>
<path d="M71.6968 206.516C84.768 206.516 95.3643 204.673 95.3643 202.4C95.3643 200.127 84.768 198.284 71.6968 198.284C58.6256 198.284 48.0293 200.127 48.0293 202.4C48.0293 204.673 58.6256 206.516 71.6968 206.516Z" fill="#E6E6E6"/>
<path d="M197.546 217.322C219.893 217.322 238.01 214.171 238.01 210.285C238.01 206.399 219.893 203.249 197.546 203.249C175.198 203.249 157.082 206.399 157.082 210.285C157.082 214.171 175.198 217.322 197.546 217.322Z" fill="#E6E6E6"/>
<path d="M180.792 147.448C182.068 147.448 183.102 146.363 183.102 145.025C183.102 143.686 182.068 142.601 180.792 142.601C179.516 142.601 178.481 143.686 178.481 145.025C178.481 146.363 179.516 147.448 180.792 147.448Z" fill="white"/>
<path d="M101.89 67.5022C107.499 69.1812 107.283 72.6953 113.936 72.6953C120.589 72.6953 125.983 73.6208 125.983 67.5022C125.983 61.3836 123.335 50.0095 113.936 50.5381C103.821 51.1069 98.4891 66.4842 101.89 67.5022Z" fill="#2F2E41"/>
<path d="M87.1285 119.313C86.8871 118.832 86.7493 118.301 86.7247 117.758C86.7001 117.215 86.7893 116.673 86.9861 116.17C87.1828 115.667 87.4823 115.215 87.8635 114.847C88.2446 114.478 88.6982 114.202 89.1922 114.037L102.993 83.4119L109.306 88.0555L93.7551 116.699C93.9639 117.588 93.8546 118.526 93.448 119.336C93.0413 120.146 92.3655 120.771 91.5487 121.093C90.7319 121.416 89.8308 121.412 89.0161 121.084C88.2014 120.756 87.5298 120.126 87.1285 119.313Z" fill="#FFB8B8"/>
<path d="M98.9548 87.4779C98.8891 87.2484 98.8714 87.0067 98.9028 86.7694C98.9343 86.532 99.0142 86.3046 99.1371 86.1025L103.428 79.0461C103.905 77.9266 104.786 77.0512 105.877 76.6118C106.968 76.1724 108.181 76.2049 109.249 76.7021C110.318 77.1994 111.155 78.1208 111.577 79.2644C111.998 80.408 111.971 81.6803 111.499 82.8024L109.338 90.8875C109.276 91.1182 109.168 91.3323 109.02 91.5151C108.873 91.6979 108.689 91.8452 108.482 91.947C108.275 92.0487 108.05 92.1025 107.822 92.1046C107.593 92.1068 107.367 92.0573 107.158 91.9594L99.8287 88.5213C99.62 88.4236 99.434 88.2798 99.2832 88.0997C99.1323 87.9196 99.0204 87.7075 98.9548 87.4779Z" fill="#25275E"/>
<path d="M137.243 178.496L133.441 179.948L126.292 165.256L131.903 163.112L137.243 178.496Z" fill="#FFB8B8"/>
<path d="M130.33 179.846L137.662 177.045L139.343 181.888L127.394 186.452C126.948 185.168 127.007 183.75 127.558 182.511C128.108 181.272 129.106 180.313 130.33 179.846Z" fill="#2F2E41"/>
<path d="M126.864 169.202L112.379 142.613C112.239 142.356 112.167 142.064 112.17 141.768C112.173 141.472 112.251 141.182 112.396 140.927L118.919 129.524C119.073 129.254 119.298 129.035 119.566 128.893C119.835 128.751 120.136 128.692 120.436 128.722C120.735 128.753 121.02 128.872 121.257 129.065C121.495 129.259 121.675 129.519 121.777 129.816L134.109 165.637C134.244 166.027 134.236 166.456 134.085 166.84C133.934 167.224 133.652 167.534 133.294 167.711L128.924 169.882C128.714 169.987 128.483 170.041 128.25 170.041C127.969 170.041 127.693 169.964 127.449 169.817C127.206 169.669 127.004 169.458 126.864 169.202Z" fill="#2F2E41"/>
<path d="M113.423 72.3631C117.899 72.3631 121.529 68.5561 121.529 63.8599C121.529 59.1637 117.899 55.3567 113.423 55.3567C108.946 55.3567 105.316 59.1637 105.316 63.8599C105.316 68.5561 108.946 72.3631 113.423 72.3631Z" fill="#FFB8B8"/>
<path d="M101.892 102.376C95.5087 87.5276 101.944 79.2289 105.007 76.3504C105.89 75.5201 107.034 75.0612 108.219 75.062H119.638C120.458 75.062 121.264 75.2819 121.981 75.7007C122.697 76.1196 123.299 76.7236 123.73 77.4553C124.161 78.187 124.407 79.0222 124.444 79.8815C124.481 80.7408 124.308 81.5957 123.941 82.3651L116.307 98.3802L101.954 102.521L101.892 102.376Z" fill="#25275E"/>
<path d="M111.123 182.511L107.077 182.51L105.152 166.139L111.124 166.139L111.123 182.511Z" fill="#FFB8B8"/>
<path d="M104.188 181.298H111.991V186.452H99.2744C99.2744 185.775 99.4015 185.105 99.6484 184.479C99.8953 183.854 100.257 183.286 100.713 182.807C101.17 182.329 101.711 181.949 102.307 181.69C102.904 181.431 103.542 181.298 104.188 181.298Z" fill="#2F2E41"/>
<path d="M109.409 176.261L102.931 175.477C102.512 175.426 102.13 175.203 101.868 174.856C101.606 174.51 101.486 174.068 101.534 173.629C101.535 173.619 101.536 173.61 101.537 173.601L107.319 127.936C107.339 127.777 107.331 127.615 107.295 127.459L101.484 102.309C101.429 102.077 101.423 101.835 101.466 101.601C101.509 101.366 101.6 101.144 101.733 100.95C102.634 99.6466 105.721 96.6095 114.906 96.552H114.916C115.222 96.552 115.521 96.6443 115.778 96.8178C116.036 96.9913 116.24 97.2387 116.367 97.5306L117.592 100.358C117.684 100.568 117.826 100.748 118.006 100.881C119.692 102.134 127.861 109.162 123.065 124.593C118.35 139.759 112.31 169.203 111.146 174.951C111.072 175.325 110.878 175.66 110.595 175.901C110.313 176.142 109.96 176.273 109.596 176.272C109.534 176.272 109.471 176.268 109.409 176.261Z" fill="#2F2E41"/>
<path d="M141.634 65.994C141.65 66.1849 141.68 66.3742 141.724 66.5601L130.718 79.2686L126.831 78.3898L124.8 84.3701L131.537 86.6273C132.081 86.8096 132.667 86.8019 133.207 86.6051C133.747 86.4084 134.211 86.0333 134.53 85.5363L144.933 69.3353C145.636 69.3681 146.332 69.1757 146.928 68.7836C147.524 68.3915 147.992 67.8184 148.27 67.1404C148.548 66.4624 148.623 65.7118 148.484 64.9883C148.345 64.2648 148 63.6027 147.494 63.0901C146.987 62.5775 146.344 62.2388 145.65 62.1189C144.956 61.9989 144.244 62.1036 143.607 62.4188C142.971 62.7341 142.442 63.245 142.089 63.8836C141.737 64.5223 141.578 65.2584 141.634 65.994Z" fill="#FFB8B8"/>
<path d="M130.385 79.8073L127.833 87.2065C127.76 87.417 127.645 87.6086 127.496 87.7683C127.346 87.928 127.166 88.052 126.966 88.1319C126.767 88.2118 126.553 88.2456 126.34 88.2312C126.127 88.2167 125.92 88.1543 125.732 88.0481L119.148 84.3274C118.124 83.9318 117.29 83.1259 116.831 82.0866C116.371 81.0473 116.324 79.8593 116.698 78.7832C117.073 77.7071 117.839 76.8307 118.828 76.3462C119.818 75.8617 120.95 75.8087 121.977 76.1987L129.283 77.7505C129.492 77.7949 129.69 77.8862 129.862 78.018C130.035 78.1498 130.178 78.3191 130.283 78.5143C130.387 78.7095 130.451 78.926 130.468 79.1491C130.486 79.3723 130.457 79.5967 130.385 79.8073Z" fill="#25275E"/>
<path d="M123.343 63.3476H120.136L118.722 59.1931L118.439 63.3476H116.907L116.082 60.9241L115.917 63.3476C111.907 65.1225 108.105 65.1715 104.53 63.3476C104.53 60.9603 105.434 58.6707 107.044 56.9826C108.653 55.2946 110.835 54.3462 113.111 54.3462H114.762C117.037 54.3462 119.22 55.2946 120.829 56.9826C122.438 58.6707 123.343 60.9603 123.343 63.3476Z" fill="#2F2E41"/>
<path d="M37.719 152.295H36.5638V151.083C36.5638 150.67 36.4073 150.274 36.1288 149.982C35.8503 149.69 35.4725 149.525 35.0786 149.525C34.6847 149.525 34.307 149.69 34.0284 149.982C33.7499 150.274 33.5934 150.67 33.5934 151.083V152.295H32.4383C32.0444 152.295 31.6667 152.459 31.3881 152.751C31.1096 153.044 30.9531 153.44 30.9531 153.853C30.9531 154.266 31.1096 154.662 31.3881 154.955C31.6667 155.247 32.0444 155.411 32.4383 155.411H33.5934V156.623C33.5934 157.036 33.7499 157.432 34.0284 157.724C34.307 158.016 34.6847 158.181 35.0786 158.181C35.4725 158.181 35.8503 158.016 36.1288 157.724C36.4073 157.432 36.5638 157.036 36.5638 156.623V155.411H37.719C38.1128 155.411 38.4906 155.247 38.7691 154.955C39.0477 154.662 39.2041 154.266 39.2041 153.853C39.2041 153.44 39.0477 153.044 38.7691 152.751C38.4906 152.459 38.1128 152.295 37.719 152.295Z" fill="#25275E"/>
<path d="M207.743 122.577H207.142V121.947C207.142 121.732 207.061 121.526 206.916 121.374C206.771 121.222 206.575 121.136 206.37 121.136C206.165 121.136 205.969 121.222 205.824 121.374C205.679 121.526 205.598 121.732 205.598 121.947V122.577H204.997C204.792 122.577 204.596 122.662 204.451 122.814C204.306 122.966 204.225 123.172 204.225 123.387C204.225 123.602 204.306 123.808 204.451 123.96C204.596 124.112 204.792 124.197 204.997 124.197H205.598V124.827C205.598 125.042 205.679 125.248 205.824 125.4C205.969 125.552 206.165 125.637 206.37 125.637C206.575 125.637 206.771 125.552 206.916 125.4C207.061 125.248 207.142 125.042 207.142 124.827V124.197H207.743C207.948 124.197 208.144 124.112 208.289 123.961C208.434 123.809 208.516 123.603 208.517 123.388C208.517 123.173 208.436 122.967 208.291 122.815C208.147 122.663 207.95 122.577 207.746 122.577H207.743Z" fill="#FF6584"/>
<path d="M77.0469 80.6856H76.4463V80.0555C76.4466 79.8407 76.3656 79.6345 76.2211 79.4822C76.0765 79.33 75.8802 79.2443 75.6754 79.2439C75.4706 79.2435 75.274 79.3285 75.1289 79.4801C74.9838 79.6318 74.9021 79.8377 74.9017 80.0525V80.6856H74.301C74.0962 80.6853 73.8996 80.7702 73.7545 80.9219C73.6094 81.0736 73.5277 81.2795 73.5273 81.4943C73.527 81.7092 73.608 81.9154 73.7526 82.0676C73.8972 82.2198 74.0935 82.3055 74.2983 82.3059H74.9017V82.936C74.9013 83.1508 74.9823 83.357 75.1269 83.5093C75.2714 83.6615 75.4677 83.7472 75.6725 83.7476C75.8774 83.748 76.0739 83.663 76.219 83.5114C76.3641 83.3597 76.4459 83.1538 76.4463 82.939V82.3059H77.0469C77.2518 82.3065 77.4484 82.2217 77.5937 82.0702C77.7389 81.9187 77.8208 81.7129 77.8214 81.498C77.822 81.2832 77.7412 81.0769 77.5968 80.9245C77.4523 80.7722 77.2561 80.6862 77.0513 80.6856H77.0497L77.0469 80.6856Z" fill="white"/>
<path d="M230.515 163.775H229.915V163.145C229.915 162.93 229.833 162.724 229.688 162.572C229.544 162.421 229.347 162.335 229.142 162.335C228.938 162.335 228.741 162.421 228.596 162.572C228.451 162.724 228.37 162.93 228.37 163.145V163.775H227.769C227.565 163.775 227.368 163.861 227.223 164.013C227.078 164.165 226.997 164.371 226.997 164.586C226.997 164.8 227.078 165.006 227.223 165.158C227.368 165.31 227.565 165.396 227.769 165.396H228.37V166.026C228.37 166.241 228.451 166.447 228.596 166.599C228.741 166.751 228.938 166.836 229.142 166.836C229.347 166.836 229.544 166.751 229.688 166.599C229.833 166.447 229.915 166.241 229.915 166.026V165.396H230.515C230.72 165.396 230.917 165.31 231.061 165.158C231.206 165.006 231.288 164.8 231.288 164.586C231.288 164.371 231.206 164.165 231.061 164.013C230.917 163.861 230.72 163.775 230.515 163.775Z" fill="white"/>
<path d="M161.207 96.2649H160.606V95.6348C160.606 95.42 160.525 95.2139 160.38 95.062C160.235 94.9101 160.039 94.8247 159.834 94.8247C159.629 94.8247 159.432 94.9101 159.288 95.062C159.143 95.2139 159.061 95.42 159.061 95.6348V96.2649H158.461C158.256 96.2649 158.06 96.3503 157.915 96.5022C157.77 96.6541 157.688 96.8602 157.688 97.0751C157.688 97.2899 157.77 97.496 157.915 97.6479C158.06 97.7998 158.256 97.8852 158.461 97.8852H159.061V98.5153C159.061 98.7301 159.143 98.9362 159.288 99.0881C159.432 99.2401 159.629 99.3254 159.834 99.3254C160.039 99.3254 160.235 99.2401 160.38 99.0881C160.525 98.9362 160.606 98.7301 160.606 98.5153V97.8852H161.207C161.308 97.8854 161.409 97.8646 161.502 97.8241C161.596 97.7835 161.681 97.724 161.753 97.6489C161.825 97.5738 161.882 97.4846 161.921 97.3864C161.96 97.2882 161.98 97.1829 161.98 97.0765C161.981 96.9701 161.961 96.8647 161.922 96.7664C161.883 96.668 161.827 96.5786 161.755 96.5032C161.684 96.4279 161.598 96.368 161.505 96.3271C161.411 96.2863 161.311 96.2651 161.209 96.2649H161.207Z" fill="#25275E"/>
<path d="M55.2637 113.575H54.6631V112.945C54.6634 112.73 54.5824 112.524 54.4379 112.372C54.2933 112.22 54.097 112.134 53.8922 112.134C53.6874 112.133 53.4908 112.218 53.3457 112.37C53.2006 112.521 53.1189 112.727 53.1185 112.942V113.575H52.5178C52.313 113.575 52.1164 113.66 51.9713 113.812C51.8262 113.963 51.7445 114.169 51.7441 114.384C51.7438 114.599 51.8248 114.805 51.9694 114.957C52.114 115.109 52.3103 115.195 52.5151 115.196H53.1185V115.826C53.1181 116.04 53.1991 116.247 53.3437 116.399C53.4882 116.551 53.6845 116.637 53.8893 116.637C54.0941 116.638 54.2907 116.553 54.4358 116.401C54.5809 116.249 54.6627 116.043 54.6631 115.829V115.196H55.2637C55.4686 115.196 55.6651 115.111 55.8102 114.959C55.9553 114.808 56.037 114.602 56.0374 114.387C56.0377 114.172 55.9567 113.966 55.8121 113.814C55.6676 113.661 55.4713 113.576 55.2664 113.575L55.2637 113.575Z" fill="white"/>
<path d="M57.2442 56.1051H56.6435V55.475C56.6439 55.2601 56.5629 55.0539 56.4183 54.9017C56.2738 54.7495 56.0775 54.6637 55.8727 54.6633C55.6678 54.6629 55.4713 54.7479 55.3262 54.8995C55.1811 55.0512 55.0993 55.2571 55.0989 55.4719V56.1051H54.4983C54.2934 56.1047 54.0969 56.1897 53.9518 56.3413C53.8067 56.493 53.725 56.6989 53.7246 56.9138C53.7243 57.1286 53.8053 57.3348 53.9499 57.487C54.0944 57.6392 54.2907 57.7249 54.4956 57.7253H55.0989V58.3554C55.0986 58.5703 55.1796 58.7765 55.3241 58.9287C55.4687 59.0809 55.665 59.1666 55.8698 59.167C56.0746 59.1674 56.2712 59.0825 56.4163 58.9308C56.5614 58.7792 56.6431 58.5733 56.6435 58.3584V57.7253H57.2442C57.449 57.7257 57.6456 57.6407 57.7907 57.489C57.9358 57.3374 58.0175 57.1315 58.0178 56.9166C58.0182 56.7018 57.9372 56.4956 57.7926 56.3434C57.648 56.1912 57.4517 56.1054 57.2469 56.1051L57.2442 56.1051Z" fill="#EB3E20"/>
<path d="M159.835 33.755C135.928 21.0872 115.88 25.2034 115.61 23.0184C115.611 19.4103 122.494 16.1916 134.496 14.188C134.539 14.1804 134.583 14.1818 134.625 14.1919C134.667 14.2021 134.707 14.221 134.742 14.2473C134.778 14.2737 134.808 14.3072 134.831 14.3457C134.854 14.3843 134.869 14.4273 134.876 14.4721C134.884 14.517 134.882 14.5629 134.873 14.6073C134.863 14.6516 134.845 14.6935 134.82 14.7305C134.794 14.7675 134.763 14.799 134.726 14.8231C134.689 14.8472 134.648 14.8634 134.605 14.8709L134.604 14.8711L134.6 14.8718C123.294 16.7593 116.271 19.8809 116.27 23.0184C116.27 28.4607 136.22 33.0603 159.835 33.0626C183.45 33.0648 203.401 28.469 203.401 23.0267C203.401 19.876 196.334 16.7454 184.956 14.8569C184.913 14.8501 184.872 14.8344 184.835 14.8109C184.798 14.7873 184.766 14.7563 184.74 14.7197C184.714 14.683 184.696 14.6414 184.685 14.5973C184.675 14.5531 184.673 14.5073 184.68 14.4623C184.686 14.4174 184.701 14.3742 184.724 14.3353C184.746 14.2965 184.776 14.2626 184.81 14.2357C184.845 14.2087 184.885 14.1893 184.927 14.1785C184.969 14.1676 185.013 14.1656 185.056 14.1724L185.057 14.1726L185.059 14.173C197.135 16.1775 204.061 19.4046 204.061 23.0267C204.061 29.045 181.97 45.4842 159.835 33.755Z" fill="#3F3D56"/>
</g>
<defs>
<clipPath id="clip0_65_641">
<rect width="258" height="221" fill="white"/>
</clipPath>
</defs>
</svg>
