<svg width="22" height="30" viewBox="0 0 22 30" fill="none" xmlns="http://www.w3.org/2000/svg">
<path d="M16.4 14.7828C16.8774 14.7828 17.3352 14.9724 17.6728 15.31C18.0104 15.6475 18.2 16.1054 18.2 16.5828C18.2 17.0601 18.0104 17.518 17.6728 17.8555C17.3352 18.1931 16.8774 18.3828 16.4 18.3828C15.9226 18.3828 15.4648 18.1931 15.1272 17.8555C14.7896 17.518 14.6 17.0601 14.6 16.5828C14.6 15.5838 15.401 14.7828 16.4 14.7828ZM2 0.382751H4.943L5.789 2.18275H19.1C19.3387 2.18275 19.5676 2.27757 19.7364 2.44636C19.9052 2.61514 20 2.84406 20 3.08275C20 3.23575 19.955 3.38875 19.892 3.53275L16.67 9.35575C16.364 9.90475 15.77 10.2828 15.095 10.2828H8.39L7.58 11.7498L7.553 11.8578C7.553 11.9174 7.5767 11.9747 7.6189 12.0169C7.6611 12.059 7.71833 12.0828 7.778 12.0828H18.2V13.8828H7.4C6.92261 13.8828 6.46477 13.6931 6.12721 13.3555C5.78964 13.018 5.6 12.5601 5.6 12.0828C5.6 11.7678 5.681 11.4708 5.816 11.2188L7.04 9.01375L3.8 2.18275H2V0.382751ZM7.4 14.7828C7.87739 14.7828 8.33523 14.9724 8.67279 15.31C9.01036 15.6475 9.2 16.1054 9.2 16.5828C9.2 17.0601 9.01036 17.518 8.67279 17.8555C8.33523 18.1931 7.87739 18.3828 7.4 18.3828C6.92261 18.3828 6.46477 18.1931 6.12721 17.8555C5.78964 17.518 5.6 17.0601 5.6 16.5828C5.6 15.5838 6.401 14.7828 7.4 14.7828ZM15.5 8.48275L18.002 3.98275H6.626L8.75 8.48275H15.5Z" fill="#001F60"/>
<path d="M2.3584 23.7939C2.18457 23.7939 2.03027 23.8281 1.89551 23.8964C1.7627 23.9628 1.65039 24.0595 1.55859 24.1865C1.46875 24.3134 1.40039 24.4667 1.35352 24.6464C1.30664 24.8261 1.2832 25.0283 1.2832 25.2529C1.2832 25.5556 1.32031 25.8144 1.39453 26.0292C1.4707 26.2421 1.58789 26.4052 1.74609 26.5185C1.9043 26.6298 2.1084 26.6855 2.3584 26.6855C2.53223 26.6855 2.70605 26.666 2.87988 26.6269C3.05566 26.5878 3.24609 26.5322 3.45117 26.4599V27.2216C3.26172 27.2997 3.0752 27.3554 2.8916 27.3886C2.70801 27.4238 2.50195 27.4413 2.27344 27.4413C1.83203 27.4413 1.46875 27.3505 1.18359 27.1689C0.900391 26.9853 0.69043 26.7294 0.553711 26.4013C0.416992 26.0712 0.348633 25.6865 0.348633 25.247C0.348633 24.9228 0.392578 24.6259 0.480469 24.3564C0.568359 24.0869 0.697266 23.8535 0.867188 23.6562C1.03711 23.4589 1.24707 23.3066 1.49707 23.1992C1.74707 23.0917 2.03418 23.038 2.3584 23.038C2.57129 23.038 2.78418 23.0654 2.99707 23.1201C3.21191 23.1728 3.41699 23.246 3.6123 23.3398L3.31934 24.0781C3.15918 24.0019 2.99805 23.9355 2.83594 23.8788C2.67383 23.8222 2.51465 23.7939 2.3584 23.7939ZM5.63672 24.04C6.07617 24.04 6.41309 24.1357 6.64746 24.3271C6.88184 24.5185 6.99902 24.8095 6.99902 25.2001V27.3828H6.375L6.20215 26.9374H6.17871C6.08496 27.0546 5.98926 27.1503 5.8916 27.2245C5.79395 27.2988 5.68164 27.3535 5.55469 27.3886C5.42773 27.4238 5.27344 27.4413 5.0918 27.4413C4.89844 27.4413 4.72461 27.4042 4.57031 27.33C4.41797 27.2558 4.29785 27.1425 4.20996 26.9902C4.12207 26.8359 4.07812 26.6406 4.07812 26.4042C4.07812 26.0566 4.2002 25.8007 4.44434 25.6367C4.68848 25.4706 5.05469 25.3788 5.54297 25.3613L6.11133 25.3437V25.2001C6.11133 25.0283 6.06641 24.9023 5.97656 24.8222C5.88672 24.7421 5.76172 24.7021 5.60156 24.7021C5.44336 24.7021 5.28809 24.7245 5.13574 24.7695C4.9834 24.8144 4.83105 24.871 4.67871 24.9394L4.38281 24.3359C4.55664 24.2441 4.75098 24.1718 4.96582 24.1191C5.18262 24.0663 5.40625 24.04 5.63672 24.04ZM6.11133 25.8652L5.76562 25.8769C5.47656 25.8847 5.27539 25.9365 5.16211 26.0322C5.05078 26.1279 4.99512 26.2538 4.99512 26.4101C4.99512 26.5468 5.03516 26.6445 5.11523 26.7031C5.19531 26.7597 5.2998 26.788 5.42871 26.788C5.62012 26.788 5.78125 26.7314 5.91211 26.6181C6.04492 26.5048 6.11133 26.3437 6.11133 26.1347V25.8652ZM9.75 24.0458C9.79492 24.0458 9.84668 24.0488 9.90527 24.0546C9.96582 24.0585 10.0146 24.0644 10.0518 24.0722L9.98438 24.9101C9.95508 24.9003 9.91309 24.8935 9.8584 24.8896C9.80566 24.8837 9.75977 24.8808 9.7207 24.8808C9.60547 24.8808 9.49316 24.8954 9.38379 24.9247C9.27637 24.954 9.17969 25.0019 9.09375 25.0683C9.00781 25.1328 8.93945 25.2187 8.88867 25.3261C8.83984 25.4316 8.81543 25.5615 8.81543 25.7158V27.3828H7.92188V24.1074H8.59863L8.73047 24.6581H8.77441C8.83887 24.5468 8.91895 24.4453 9.01465 24.3535C9.1123 24.2597 9.22266 24.1855 9.3457 24.1308C9.4707 24.0742 9.60547 24.0458 9.75 24.0458ZM12.4746 24.0458C12.5195 24.0458 12.5713 24.0488 12.6299 24.0546C12.6904 24.0585 12.7393 24.0644 12.7764 24.0722L12.709 24.9101C12.6797 24.9003 12.6377 24.8935 12.583 24.8896C12.5303 24.8837 12.4844 24.8808 12.4453 24.8808C12.3301 24.8808 12.2178 24.8954 12.1084 24.9247C12.001 24.954 11.9043 25.0019 11.8184 25.0683C11.7324 25.1328 11.6641 25.2187 11.6133 25.3261C11.5645 25.4316 11.54 25.5615 11.54 25.7158V27.3828H10.6465V24.1074H11.3232L11.4551 24.6581H11.499C11.5635 24.5468 11.6436 24.4453 11.7393 24.3535C11.8369 24.2597 11.9473 24.1855 12.0703 24.1308C12.1953 24.0742 12.3301 24.0458 12.4746 24.0458ZM14.2646 24.1074V27.3828H13.3711V24.1074H14.2646ZM13.8193 22.8242C13.9521 22.8242 14.0664 22.8554 14.1621 22.9179C14.2578 22.9785 14.3057 23.0927 14.3057 23.2607C14.3057 23.4267 14.2578 23.5419 14.1621 23.6064C14.0664 23.6689 13.9521 23.7001 13.8193 23.7001C13.6846 23.7001 13.5693 23.6689 13.4736 23.6064C13.3799 23.5419 13.333 23.4267 13.333 23.2607C13.333 23.0927 13.3799 22.9785 13.4736 22.9179C13.5693 22.8554 13.6846 22.8242 13.8193 22.8242ZM16.585 26.7294C16.6826 26.7294 16.7773 26.7197 16.8691 26.7001C16.9629 26.6806 17.0557 26.6562 17.1475 26.6269V27.2919C17.0518 27.3349 16.9326 27.3701 16.79 27.3974C16.6494 27.4267 16.4951 27.4413 16.3271 27.4413C16.1318 27.4413 15.9561 27.4101 15.7998 27.3476C15.6455 27.2831 15.5234 27.1728 15.4336 27.0165C15.3457 26.8583 15.3018 26.6386 15.3018 26.3574V24.7783H14.874V24.4003L15.3662 24.1015L15.624 23.4101H16.1953V24.1074H17.1123V24.7783H16.1953V26.3574C16.1953 26.4824 16.2305 26.5761 16.3008 26.6386C16.373 26.6992 16.4678 26.7294 16.585 26.7294ZM20.7891 25.7392C20.7891 26.0126 20.752 26.2548 20.6777 26.4658C20.6055 26.6767 20.499 26.8554 20.3584 27.0019C20.2197 27.1464 20.0518 27.2558 19.8545 27.33C19.6592 27.4042 19.4385 27.4413 19.1924 27.4413C18.9619 27.4413 18.75 27.4042 18.5566 27.33C18.3652 27.2558 18.1982 27.1464 18.0557 27.0019C17.915 26.8554 17.8057 26.6767 17.7275 26.4658C17.6514 26.2548 17.6133 26.0126 17.6133 25.7392C17.6133 25.3759 17.6777 25.0683 17.8066 24.8163C17.9355 24.5644 18.1191 24.373 18.3574 24.2421C18.5957 24.1113 18.8799 24.0458 19.21 24.0458C19.5166 24.0458 19.7881 24.1113 20.0244 24.2421C20.2627 24.373 20.4492 24.5644 20.584 24.8163C20.7207 25.0683 20.7891 25.3759 20.7891 25.7392ZM18.5244 25.7392C18.5244 25.954 18.5479 26.1347 18.5947 26.2812C18.6416 26.4277 18.7148 26.538 18.8145 26.6122C18.9141 26.6865 19.0439 26.7236 19.2041 26.7236C19.3623 26.7236 19.4902 26.6865 19.5879 26.6122C19.6875 26.538 19.7598 26.4277 19.8047 26.2812C19.8516 26.1347 19.875 25.954 19.875 25.7392C19.875 25.5224 19.8516 25.3427 19.8047 25.2001C19.7598 25.0556 19.6875 24.9472 19.5879 24.8749C19.4883 24.8027 19.3584 24.7665 19.1982 24.7665C18.9619 24.7665 18.79 24.8476 18.6826 25.0097C18.5771 25.1718 18.5244 25.415 18.5244 25.7392Z" fill="#25275E"/>
</svg>
