<?xml version="1.0" encoding="utf-8"?>
<!-- Generator: Adobe Illustrator 26.3.1, SVG Export Plug-In . SVG Version: 6.00 Build 0)  -->
<svg version="1.1" id="Capa_1" xmlns="http://www.w3.org/2000/svg" xmlns:xlink="http://www.w3.org/1999/xlink" x="0px" y="0px"
	 viewBox="0 0 700 576" style="enable-background:new 0 0 700 576;" xml:space="preserve">
<g>
	<path d="M191.4,116.5H349l-83.2-48.1c-9.6-5.5-20.6-6.6-30.6-4c-10,2.7-19,9.2-24.6,18.7L191.4,116.5L191.4,116.5z M373.6,270.2
		c-6.2,0-11.2-5-11.2-11.2c0-6.2,5-11.2,11.2-11.2h152.8c6.2,0,11.2,5,11.2,11.2c0,6.2-5,11.2-11.2,11.2H373.6z M373.6,354.4
		c-6.2,0-11.2-5-11.2-11.2s5-11.2,11.2-11.2h123.8c6.2,0,11.2,5,11.2,11.2s-5,11.2-11.2,11.2H373.6z M373.6,312.3
		c-6.2,0-11.2-5-11.2-11.2c0-6.2,5-11.2,11.2-11.2h152.8c6.2,0,11.2,5,11.2,11.2c0,6.2-5,11.2-11.2,11.2H373.6z M373.6,228.1
		c-6.2,0-11.2-5-11.2-11.2c0-6.2,5-11.2,11.2-11.2h152.8c6.2,0,11.2,5,11.2,11.2c0,6.2-5,11.2-11.2,11.2H373.6z M292.2,276.6
		c10.4,6.4,19.4,14.9,26.3,24.9c9.4,13.7,14.9,30.3,14.9,48.2c0,6.2-5,11.2-11.2,11.2H173.5c-6.2,0-11.2-5-11.2-11.2
		c0-17.8,5.5-34.4,14.9-48.2c6.9-10,15.8-18.6,26.3-24.9c-4.5-7.7-7.1-16.6-7.1-26.1c0-14.1,5.8-27,15.1-36.3l0.1-0.1
		c9.3-9.3,22.2-15.1,36.3-15.1c14.2,0,27,5.8,36.3,15.1c9.3,9.4,15.1,22.2,15.1,36.4C299.3,260.1,296.7,269,292.2,276.6L292.2,276.6
		z M219.3,293.4c-9.5,4.8-17.7,12-23.7,20.8c-4.9,7.2-8.4,15.4-10,24.4H310c-1.6-8.9-5.1-17.2-10-24.4c-6-8.8-14.1-15.9-23.6-20.8
		c-8.2,5.5-18,8.6-28.5,8.6C237.3,302,227.5,298.8,219.3,293.4L219.3,293.4z M268.4,230c-5.2-5.2-12.5-8.5-20.6-8.5
		c-8.1,0-15.3,3.2-20.5,8.5c-5.3,5.3-8.5,12.5-8.5,20.6c0,8.1,3.2,15.3,8.5,20.6l0.8,0.7l0.1,0.1l0.6,0.5c5.1,4.5,11.8,7.2,19.2,7.2
		c8,0,15.3-3.3,20.6-8.5c5.2-5.2,8.5-12.5,8.5-20.6C276.9,242.5,273.6,235.2,268.4,230L268.4,230z M393.7,116.5h134.9
		c17.3,0,33,7.1,44.4,18.4l0.6,0.6c11,11.3,17.8,26.8,17.8,43.7V231c12.2,8.7,20.5,21.2,24.2,34.9c4.2,15.5,2.4,32.6-6.2,47.6
		l-18,31.2v36c0,17.3-7.1,33-18.4,44.4c-10.1,10.1-23.5,16.8-38.5,18.2l-26.2,45.4c-8.7,14.6-22.4,24.4-37.7,28.5
		c-15.5,4.1-32.6,2.4-47.6-6.2l-116.8-67.4H171.4c-17.3,0-33-7.1-44.4-18.4s-18.4-27.1-18.4-44.4V329c-12.2-8.7-20.5-21.2-24.2-34.9
		c-4.2-15.5-2.4-32.6,6.2-47.6l18-31.2v-36c0-17.3,7.1-33,18.4-44.4l0.6-0.6c10-9.7,23.2-16.2,37.8-17.6l25.8-44.7
		c8.7-15,22.6-25.1,38.1-29.2c15.5-4.1,32.6-2.4,47.6,6.2L393.7,116.5L393.7,116.5z M591.5,264.7v35.1c4.3-9,5-18.9,2.6-28.1
		C593.4,269.3,592.5,266.9,591.5,264.7L591.5,264.7z M508.6,443.5H351l83.2,48.1c9.6,5.5,20.6,6.6,30.6,4
		c9.8-2.6,18.7-8.9,24.3-18.2l0.3-0.6L508.6,443.5L508.6,443.5z M108.5,295.3v-35.1c-4.3,9-5,18.9-2.6,28.1
		C106.6,290.7,107.5,293.1,108.5,295.3L108.5,295.3z M528.7,138.9H171.4c-10.9,0-20.8,4.4-28.1,11.4l-0.5,0.5
		c-7.3,7.3-11.9,17.4-11.9,28.5v201.4c0,11.1,4.6,21.2,11.9,28.5c7.3,7.3,17.4,11.9,28.5,11.9h357.3c11.1,0,21.2-4.6,28.5-11.9
		c7.3-7.3,11.9-17.4,11.9-28.5V179.3c0-10.9-4.4-20.8-11.4-28.1l-0.5-0.5C549.9,143.5,539.8,138.9,528.7,138.9L528.7,138.9z"/>
</g>
</svg>
