<?xml version="1.0" encoding="utf-8"?>
<!-- Generator: Adobe Illustrator 26.3.1, SVG Export Plug-In . SVG Version: 6.00 Build 0)  -->
<svg version="1.1" id="Capa_1" xmlns="http://www.w3.org/2000/svg" xmlns:xlink="http://www.w3.org/1999/xlink" x="0px" y="0px"
	 viewBox="0 0 431 435" style="enable-background:new 0 0 431 435;" xml:space="preserve">
<g>
	<path d="M196.4,329.4c31.3,0,61.8-10.5,86.4-29.9l92.8,92.8l23.7-23.7l-92.8-92.8c26.2-33.5,35.8-77.1,26.1-118.5
		c-9.8-41.4-37.8-76.1-76.3-94.4s-83.1-18-121.3,0.6C96.7,82.2,69,117.2,59.7,158.7c-9.3,41.5,0.7,85,27.3,118.2
		C113.6,310.1,153.9,329.4,196.4,329.4L196.4,329.4z M196.4,83c28.2,0,55.3,11.2,75.2,31.2s31.2,47,31.2,75.2s-11.2,55.3-31.2,75.2
		s-47,31.2-75.2,31.2s-55.3-11.2-75.2-31.2S90,217.6,90,189.4s11.2-55.3,31.2-75.2S168.2,83,196.4,83z"/>
</g>
</svg>
