<svg width="21" height="30" viewBox="0 0 21 30" fill="none" xmlns="http://www.w3.org/2000/svg">
<path d="M18.1 18.3828L11.8 12.0828C11.3 12.4828 10.725 12.7994 10.075 13.0328C9.425 13.2661 8.73333 13.3828 8 13.3828C6.18333 13.3828 4.646 12.7534 3.388 11.4948C2.13 10.2361 1.50067 8.69875 1.5 6.88275C1.5 5.06608 2.12933 3.52875 3.388 2.27075C4.64667 1.01275 6.184 0.383418 8 0.382751C9.81667 0.382751 11.354 1.01208 12.612 2.27075C13.87 3.52942 14.4993 5.06675 14.5 6.88275C14.5 7.61609 14.3833 8.30775 14.15 8.95775C13.9167 9.60775 13.6 10.1828 13.2 10.6828L19.5 16.9828L18.1 18.3828ZM8 11.3828C9.25 11.3828 10.3127 10.9451 11.188 10.0698C12.0633 9.19442 12.5007 8.13208 12.5 6.88275C12.5 5.63275 12.0623 4.57008 11.187 3.69475C10.3117 2.81942 9.24933 2.38208 8 2.38275C6.75 2.38275 5.68733 2.82042 4.812 3.69575C3.93667 4.57108 3.49933 5.63342 3.5 6.88275C3.5 8.13275 3.93767 9.19542 4.813 10.0708C5.68833 10.9461 6.75067 11.3834 8 11.3828Z" fill="#25275E"/>
<path d="M0.539062 23.0995H1.87207C2.44238 23.0995 2.87402 23.1796 3.16699 23.3398C3.45996 23.4999 3.60645 23.7812 3.60645 24.1835C3.60645 24.3456 3.58008 24.4921 3.52734 24.623C3.47656 24.7538 3.40234 24.8613 3.30469 24.9453C3.20703 25.0292 3.08789 25.0839 2.94727 25.1093V25.1386C3.08984 25.1679 3.21875 25.2187 3.33398 25.291C3.44922 25.3613 3.54102 25.4648 3.60938 25.6015C3.67969 25.7363 3.71484 25.916 3.71484 26.1406C3.71484 26.4003 3.65137 26.623 3.52441 26.8085C3.39746 26.9941 3.21582 27.1367 2.97949 27.2363C2.74512 27.3339 2.46582 27.3828 2.1416 27.3828H0.539062V23.0995ZM1.44727 24.7958H1.97461C2.23828 24.7958 2.4209 24.7548 2.52246 24.6728C2.62402 24.5888 2.6748 24.4658 2.6748 24.3036C2.6748 24.1396 2.61426 24.0224 2.49316 23.9521C2.37402 23.8798 2.18457 23.8437 1.9248 23.8437H1.44727V24.7958ZM1.44727 25.5165V26.6328H2.03906C2.3125 26.6328 2.50293 26.58 2.61035 26.4745C2.71777 26.3691 2.77148 26.2275 2.77148 26.0497C2.77148 25.9443 2.74805 25.8515 2.70117 25.7714C2.6543 25.6913 2.5752 25.6288 2.46387 25.5839C2.35449 25.539 2.20312 25.5165 2.00977 25.5165H1.44727ZM7.50586 24.1074V27.3828H6.82031L6.7002 26.9638H6.65332C6.58301 27.0751 6.49512 27.166 6.38965 27.2363C6.28418 27.3066 6.16797 27.3583 6.04102 27.3915C5.91406 27.4247 5.78223 27.4413 5.64551 27.4413C5.41113 27.4413 5.20703 27.4003 5.0332 27.3183C4.85938 27.2343 4.72363 27.1044 4.62598 26.9286C4.53027 26.7529 4.48242 26.5244 4.48242 26.2431V24.1074H5.37598V26.0204C5.37598 26.2548 5.41797 26.4316 5.50195 26.5507C5.58594 26.6699 5.71973 26.7294 5.90332 26.7294C6.08496 26.7294 6.22754 26.6884 6.33105 26.6064C6.43457 26.5224 6.50684 26.4003 6.54785 26.2402C6.59082 26.0781 6.6123 25.8808 6.6123 25.6484V24.1074H7.50586ZM10.7285 26.4101C10.7285 26.6328 10.6758 26.8212 10.5703 26.9755C10.4668 27.1279 10.3115 27.2441 10.1045 27.3242C9.89746 27.4023 9.63965 27.4413 9.33105 27.4413C9.10254 27.4413 8.90625 27.4267 8.74219 27.3974C8.58008 27.3681 8.41602 27.3193 8.25 27.2509V26.5126C8.42773 26.5927 8.61816 26.6591 8.82129 26.7119C9.02637 26.7626 9.20605 26.788 9.36035 26.788C9.53418 26.788 9.6582 26.7626 9.73242 26.7119C9.80859 26.6591 9.84668 26.5908 9.84668 26.5068C9.84668 26.4521 9.83105 26.4033 9.7998 26.3603C9.77051 26.3154 9.70605 26.2656 9.60645 26.2109C9.50684 26.1542 9.35059 26.081 9.1377 25.9911C8.93262 25.9052 8.76367 25.8183 8.63086 25.7304C8.5 25.6425 8.40234 25.539 8.33789 25.4199C8.27539 25.2988 8.24414 25.1454 8.24414 24.9599C8.24414 24.6572 8.36133 24.4296 8.5957 24.2773C8.83203 24.123 9.14746 24.0458 9.54199 24.0458C9.74512 24.0458 9.93848 24.0663 10.1221 24.1074C10.3076 24.1484 10.498 24.2138 10.6934 24.3036L10.4238 24.9482C10.2617 24.8779 10.1084 24.8203 9.96387 24.7753C9.82129 24.7304 9.67578 24.7079 9.52734 24.7079C9.39648 24.7079 9.29785 24.7255 9.23145 24.7607C9.16504 24.7958 9.13184 24.8495 9.13184 24.9218C9.13184 24.9745 9.14844 25.0214 9.18164 25.0624C9.2168 25.1035 9.2832 25.1494 9.38086 25.2001C9.48047 25.249 9.62598 25.3124 9.81738 25.3906C10.0029 25.4667 10.1641 25.5468 10.3008 25.6308C10.4375 25.7128 10.543 25.8154 10.6172 25.9384C10.6914 26.0595 10.7285 26.2167 10.7285 26.4101ZM12.7559 27.4413C12.4316 27.4413 12.1553 27.3828 11.9268 27.2656C11.6982 27.1464 11.5244 26.9628 11.4053 26.7148C11.2861 26.4667 11.2266 26.1494 11.2266 25.7626C11.2266 25.3622 11.2939 25.0361 11.4287 24.7841C11.5654 24.5302 11.7539 24.3437 11.9941 24.2245C12.2363 24.1054 12.5166 24.0458 12.835 24.0458C13.0615 24.0458 13.2568 24.0683 13.4209 24.1132C13.5869 24.1562 13.7314 24.2079 13.8545 24.2685L13.5908 24.9599C13.4502 24.9033 13.3193 24.8574 13.1982 24.8222C13.0771 24.7851 12.9561 24.7665 12.835 24.7665C12.6787 24.7665 12.5488 24.8036 12.4453 24.8779C12.3418 24.9501 12.2646 25.0595 12.2139 25.206C12.1631 25.3525 12.1377 25.5361 12.1377 25.7568C12.1377 25.9736 12.165 26.1533 12.2197 26.2958C12.2744 26.4384 12.3535 26.5449 12.457 26.6152C12.5605 26.6835 12.6865 26.7177 12.835 26.7177C13.0205 26.7177 13.1855 26.6933 13.3301 26.6445C13.4746 26.5937 13.6152 26.5234 13.752 26.4335V27.1982C13.6152 27.2841 13.4717 27.3456 13.3213 27.3828C13.1729 27.4218 12.9844 27.4413 12.7559 27.4413ZM15.8555 24.04C16.2949 24.04 16.6318 24.1357 16.8662 24.3271C17.1006 24.5185 17.2178 24.8095 17.2178 25.2001V27.3828H16.5938L16.4209 26.9374H16.3975C16.3037 27.0546 16.208 27.1503 16.1104 27.2245C16.0127 27.2988 15.9004 27.3535 15.7734 27.3886C15.6465 27.4238 15.4922 27.4413 15.3105 27.4413C15.1172 27.4413 14.9434 27.4042 14.7891 27.33C14.6367 27.2558 14.5166 27.1425 14.4287 26.9902C14.3408 26.8359 14.2969 26.6406 14.2969 26.4042C14.2969 26.0566 14.4189 25.8007 14.6631 25.6367C14.9072 25.4706 15.2734 25.3788 15.7617 25.3613L16.3301 25.3437V25.2001C16.3301 25.0283 16.2852 24.9023 16.1953 24.8222C16.1055 24.7421 15.9805 24.7021 15.8203 24.7021C15.6621 24.7021 15.5068 24.7245 15.3545 24.7695C15.2021 24.8144 15.0498 24.871 14.8975 24.9394L14.6016 24.3359C14.7754 24.2441 14.9697 24.1718 15.1846 24.1191C15.4014 24.0663 15.625 24.04 15.8555 24.04ZM16.3301 25.8652L15.9844 25.8769C15.6953 25.8847 15.4941 25.9365 15.3809 26.0322C15.2695 26.1279 15.2139 26.2538 15.2139 26.4101C15.2139 26.5468 15.2539 26.6445 15.334 26.7031C15.4141 26.7597 15.5186 26.788 15.6475 26.788C15.8389 26.788 16 26.7314 16.1309 26.6181C16.2637 26.5048 16.3301 26.3437 16.3301 26.1347V25.8652ZM19.9688 24.0458C20.0137 24.0458 20.0654 24.0488 20.124 24.0546C20.1846 24.0585 20.2334 24.0644 20.2705 24.0722L20.2031 24.9101C20.1738 24.9003 20.1318 24.8935 20.0771 24.8896C20.0244 24.8837 19.9785 24.8808 19.9395 24.8808C19.8242 24.8808 19.7119 24.8954 19.6025 24.9247C19.4951 24.954 19.3984 25.0019 19.3125 25.0683C19.2266 25.1328 19.1582 25.2187 19.1074 25.3261C19.0586 25.4316 19.0342 25.5615 19.0342 25.7158V27.3828H18.1406V24.1074H18.8174L18.9492 24.6581H18.9932C19.0576 24.5468 19.1377 24.4453 19.2334 24.3535C19.3311 24.2597 19.4414 24.1855 19.5645 24.1308C19.6895 24.0742 19.8242 24.0458 19.9688 24.0458Z" fill="#25275E"/>
</svg>
